<svg width="44" height="36" viewBox="0 0 44 36" fill="none" xmlns="http://www.w3.org/2000/svg">
<path d="M39.1875 7.06152H33.4258C33.1329 7.06152 32.7696 6.87207 32.4864 6.57324L29.9532 2.5752C29.9131 2.51174 29.8684 2.45136 29.8194 2.39453C28.9444 1.37402 27.7618 0.811523 26.4922 0.811523H17.5079C16.2383 0.811523 15.0557 1.37402 14.1807 2.39453C14.1317 2.45136 14.087 2.51174 14.0469 2.5752L11.5137 6.5791C11.2969 6.81543 10.9922 7.06738 10.6719 7.06738V6.28613C10.6719 5.87173 10.5073 5.4743 10.2143 5.18128C9.92125 4.88825 9.52382 4.72363 9.10942 4.72363H6.76567C6.35127 4.72363 5.95384 4.88825 5.66082 5.18128C5.36779 5.4743 5.20317 5.87173 5.20317 6.28613V7.06738H4.81255C3.56974 7.06868 2.37821 7.56295 1.49941 8.44175C0.620616 9.32054 0.12634 10.5121 0.125048 11.7549V30.499C0.12634 31.7418 0.620616 32.9334 1.49941 33.8122C2.37821 34.691 3.56974 35.1852 4.81255 35.1865H39.1875C40.4303 35.1852 41.6219 34.691 42.5007 33.8122C43.3795 32.9334 43.8737 31.7418 43.875 30.499V11.749C43.8737 10.5062 43.3795 9.31468 42.5007 8.43589C41.6219 7.55709 40.4303 7.06282 39.1875 7.06152ZM22 28.9365C20.1458 28.9365 18.3333 28.3867 16.7916 27.3566C15.2499 26.3264 14.0482 24.8622 13.3387 23.1492C12.6291 21.4361 12.4434 19.5511 12.8052 17.7326C13.1669 15.914 14.0598 14.2435 15.3709 12.9324C16.682 11.6213 18.3525 10.7284 20.1711 10.3667C21.9896 10.0049 23.8746 10.1906 25.5877 10.9002C27.3008 11.6097 28.7649 12.8113 29.7951 14.3531C30.8252 15.8948 31.375 17.7073 31.375 19.5615C31.3722 22.0471 30.3836 24.43 28.626 26.1875C26.8685 27.945 24.4856 28.9337 22 28.9365V28.9365Z" fill="#666666"/>
</svg>
