<svg width="335" height="335" xmlns="http://www.w3.org/2000/svg">
 <g id="Layer_1">
  <title>Layer 1</title>
  <ellipse opacity="0" stroke-width="5" ry="76.5" rx="86.5" id="svg_23" cy="159" cx="167" stroke-dasharray="5,5" stroke="#000" fill="#6D97AB"/>
  <ellipse filter="url(#svg_26_blur)" stroke-width="5" stroke="#000" ry="138" rx="119.5" id="svg_26" cy="167.5" cx="167.5" stroke-dasharray="5,5" fill="#6D97AB"/>
  <path id="svg_27" d="m56.5,130.5" opacity="NaN" stroke-dasharray="5,5" stroke="#000" fill="#6D97AB"/>
  <path stroke-width="5" d="m201.5,40.5c-1,0 -7.71201,-1.98162 -13,-3c-1.96391,-0.37822 -6,0 -11,0c-6,0 -11,0 -18,0c-4,0 -8.03746,-0.61092 -13,0c-4.09221,0.50377 -8.30449,0.46926 -12,2c-3.91969,1.62359 -5.19577,3.64886 -9,6c-4.25326,2.62865 -8.40401,4.41156 -13,8c-2.22939,1.74065 -5.66995,3.09478 -10,7c-3.71298,3.34869 -9.1034,8.90633 -10,10c-2.28588,2.78832 -3.33749,5.31001 -5,8c-1.48699,2.40601 -3.28859,4.86829 -5,9c-1.21015,2.92156 -4.49622,6.90778 -5,11c-0.36655,2.97752 -1.54705,9.11237 -3,14c-1.53448,5.16191 -2.69125,8.0718 -4,13c-0.81165,3.05634 -3,6 -3,12c0,6 0,10 0,16c0,7 0,12 0,16c0,4 0,8 0,11c0,4 0,7 0,11c0,3 -0.91901,7.10701 0,11c1.54123,6.52875 3.23174,6.92767 5,13c1.15277,3.95868 1.67947,6.57111 4,11c1.46764,2.80109 3.2213,7.31856 6,13c1.58411,3.23892 4.62351,8.24612 8,13c4.52263,6.36755 7.42335,8.42825 13,13c2.18734,1.79318 5.31001,4.33749 8,6c2.40601,1.487 6,3 10,5c2,1 4.93414,2.14429 7,3c5.84312,2.42029 8.01947,1.60583 12,2c5.0742,0.50244 11,1 15,1c8,0 12.11621,-1.44165 21,0c6.24289,1.01309 8,2 11,2c7,0 11,0 16,0c4,0 6,0 8,0c1,0 4.08582,0.57956 6,0c3.45085,-1.04483 6.16119,-1.7464 11,-5c4.14925,-2.78995 5.31001,-3.33749 8,-5c2.40601,-1.487 4.09268,-3.91144 6,-6c5.26675,-5.76727 5,-8 9,-12c3,-3 4.53238,-6.19891 6,-9c2.32053,-4.42889 4.28857,-5.86829 6,-10c1.21014,-2.92157 0.41156,-5.40401 4,-10c1.74066,-2.22939 2.44147,-5.82544 7,-18c1.10886,-2.96149 1,-5 1,-9c0,-7 1.80292,-12.00974 2,-14c0.50244,-5.0742 1,-9 1,-11c0,-3 0,-6 0,-10c0,-4 0.94553,-7.09023 0,-12c-1.01837,-5.28799 -3,-10 -5,-16c-2,-6 -3.54861,-12.76993 -5,-17c-1.65482,-4.82303 -2.11588,-9.96384 -3,-13c-1.15277,-3.95868 -3.49829,-6.93797 -4,-13c-0.16495,-1.99319 -2.48627,-6.82375 -3,-9c-0.4595,-1.9465 -1.69254,-5.186 -3,-7c-1.65381,-2.29454 -3,-5 -4,-6c-2,-2 -4,-5 -5,-6c-2,-2 -2.52786,-5.76393 -7,-8c-0.89442,-0.44721 -2,-1 -4,-2c-2,-1 -3.03986,-1.92398 -5,-3c-5.11145,-2.80591 -6.86829,-3.28859 -11,-5c-2.92157,-1.21015 -6.00974,-2.80293 -8,-3c-5.0742,-0.50245 -7,-3 -9,-3c-2,0 -3,-1 -8,-2l-4,0l-3,0l-1,0" id="svg_29" stroke-dasharray="5,5" stroke="#000" fill="none"/>
  <path stroke-width="5" d="m141.5,111.5c0,1 -1,1 -2,1c-1,0 -3,0 -4,0c-3,0 -6,0 -8,0c-1,0 -4,0 -7,0c-1,0 -3,1 -4,1c-1,0 -4.07612,0.61732 -5,1c-2.61313,1.08239 -2.07612,2.61732 -3,3c-2.61313,1.08239 -3.77025,3.02675 -4,4c-0.51374,2.17625 -2.34619,3.70546 -4,6c-1.30745,1.814 -1,3 -1,4c0,1 0,3 0,4c0,1 0,4 0,5c0,1 -0.52573,2.14935 0,3c1.17557,1.90211 3.04291,0.71022 4,1c3.45084,1.04483 6,3 10,3c3,0 6.02583,1.67964 8,2c3.12144,0.50655 9,3 10,3c2,0 4,0 5,0c3,0 5,0 8,0c2,0 5,0 7,0c3,0 4.01291,0.16019 5,0c3.12144,-0.50655 4.0535,-0.5405 6,-1c2.17625,-0.51375 2.69255,-1.186 4,-3c1.65381,-2.29454 3,-4 4,-5c1,-1 1,-2 1,-5c0,-1 -0.4588,-1.69344 -1,-3c-0.38269,-0.92387 -0.69255,-2.186 -2,-4c-0.8269,-1.14726 -1.61731,-3.07613 -2,-4c-1.0824,-2.61313 -2.33749,-3.31001 -4,-6c-0.7435,-1.203 -1.61731,-2.07612 -2,-3c-0.5412,-1.30656 -2,-1 -3,-2c-1,-1 -3.15927,-0.61065 -6,-2c-3.23892,-1.58411 -5.13376,-0.85123 -10,-2c-2.17625,-0.51374 -4,-1 -8,-1l-2,0l-3,0" id="svg_31" stroke-dasharray="5,5" stroke="#000" fill="none"/>
  <path stroke-width="5" d="m224.5,116.5c-1,0 -2.07613,0.38268 -3,0c-2.61313,-1.08239 -3,-2 -4,-2c-2,0 -2.82375,-0.48626 -5,-1c-0.97325,-0.22975 -4,0 -7,0c-1,0 -2,0 -3,0c-2,0 -3,0 -4,0c-3,0 -4.0535,-0.4595 -6,0c-2.17625,0.51374 -2.14935,1.47427 -3,2c-1.90211,1.17557 -2.29289,3.29289 -3,4c-2.82843,2.82843 -0.23463,4.15224 -1,6c-1.0824,2.61313 -2,3 -2,5c0,1 0,2 0,4c0,1 0,2 0,3c0,1 0,3 0,4c0,1 1.07613,2.61731 2,3c1.30656,0.5412 0.69344,2.4588 2,3c1.84776,0.76537 3.07613,0.61731 4,1c2.61313,1.0824 3.15224,1.23463 5,2c1.30656,0.5412 2,1 5,1c1,0 3,1 4,1c2,0 3,0 4,0c2,0 3,0 4,0c1,0 3,0 4,0c1,0 3,0 5,0c4,0 4.56725,-0.28325 6,-2c3.20374,-3.83876 4.07613,-3.61731 5,-4c1.30656,-0.5412 1.69344,-2.4588 3,-3c0.92387,-0.38269 2.4588,-0.69344 3,-2c0.38269,-0.92387 2,-1 2,-2c0,-2 0,-3 0,-4c0,-1 0,-3 0,-4c0,-1 0,-2 0,-4c0,-2 -1.34619,-3.70546 -3,-6c-1.30745,-1.814 -3,-3 -4,-4c-1,-1 -2.01291,-1.83982 -3,-2c-3.12144,-0.50654 -4,-1 -12,-3l-1,0l-2,0l-1,0" id="svg_32" stroke-dasharray="5,5" stroke="#000" fill="none"/>
  <path stroke-width="5" d="m21.5,34.5c0,1 1,2 1,3c0,2 0,3 0,6c0,1 0,5 0,7c0,5 0.97251,8.6475 2,13c1.14876,4.86624 0,9 0,12c0,4 0,5 0,11c0,1 0,4 0,9l0,1l0,1" id="svg_33" stroke-dasharray="5,5" stroke="#000" fill="none"/>
  <path stroke-width="5" d="m310.5,30.5c1,3 1,4 1,7c0,2 2,5 2,6c0,3 0,8 0,11c0,1 0,3 0,6c0,3 0,4 0,6c0,2 0,4 0,7c0,2 0,3 0,6c0,1 0,2 0,4c0,1 -0.22977,2.02675 0,3c0.51373,2.17625 1,3 1,4l0,2l1,2l0,1" id="svg_34" stroke-dasharray="5,5" stroke="#000" fill="none"/>
  <path stroke-width="5" d="m23.5,27.5c14,1 17,1 18,1c1,0 4,0 8,0c1,0 4,1 5,1c1,0 3,0 4,0c1,0 2,0 4,0c2,0 3,0 6,0c1,0 3.87856,0.49346 7,1c0.98709,0.16018 2,0 3,0c2,0 3.04291,-0.28978 4,0c3.45084,1.04483 4,2 6,2c1,0 2,0 3,0l2,0l1,0l1,0" id="svg_35" stroke-dasharray="5,5" stroke="#000" fill="none"/>
  <path stroke-width="5" d="m250.5,31.5c1,0 3,0 6,0c2,0 8,0 15,0c4,0 10,0 15,0c3,0 6,0 8,0c1,0 4,0 5,0c3,0 4,0 5,0l3,0l1,0" id="svg_36" stroke-dasharray="5,5" stroke="#000" fill="none"/>
  <path stroke-width="5" d="m14.5,252.5c0,1 1,2 1,6c0,3 -0.64073,5.05164 0,9c0.50654,3.12143 1,6 1,8c0,2 0,3 0,5c0,3 0,5 0,8c0,4 0,5 0,8c0,2 0,6 0,8c0,2 0,4 0,5c0,2 0,4 0,5l0,3l2,1l0,1" id="svg_37" stroke-dasharray="5,5" stroke="#000" fill="none"/>
  <path stroke-width="5" d="m86.5,314.5c-5,0 -8,0 -10,0c-4,0 -10.02997,-0.48874 -14,0c-4.09221,0.50378 -7,1 -9,1c-1,0 -3,0 -5,0c-2,0 -5,1 -6,1c-1,0 -3,0 -4,0c-1,0 -3,0 -4,0c-1,0 -2,0 -4,0c-1,0 -2,2 -4,2l-1,0" id="svg_38" stroke-dasharray="5,5" stroke="#000" fill="none"/>
  <path stroke-width="5" d="m249.5,315.5c1,0 4,2 6,2c4,0 11,0 14,0c1,0 7,0 8,0c4,0 7,1 10,1c2,0 4.69345,0.4588 6,1c0.92389,0.38269 2,0 4,0c1,0 2.4588,-0.30655 3,1c0.38269,0.92389 2,1 3,1c2,0 4,0 5,0c1,0 3.48627,0.17624 4,-2c0.22977,-0.97324 0,-3 0,-9c0,-1 0.9725,-1.64749 2,-6c0.22977,-0.97324 -0.16019,-3.01291 0,-4c0.50653,-3.12143 -0.57718,-4.44806 1,-7c1.17557,-1.9021 2,-2 2,-4c0,-2 -0.48627,-3.82376 -1,-6c-0.91901,-3.89301 -0.49622,-4.90778 -1,-9c-0.24435,-1.98502 0,-3 0,-4c0,-1 -1,-2 -1,-4c0,-1 0,-2 0,-4c0,-1 0,-2 0,-3l-1,-3" id="svg_39" stroke-dasharray="5,5" stroke="#000" fill="none"/>
 </g>

</svg>